<svg width="108" height="18" viewBox="0 0 108 18" fill="none" xmlns="http://www.w3.org/2000/svg">
<path d="M4.26989 14.2301C3.64773 14.2301 3.0831 14.1129 2.57599 13.8786C2.06889 13.6399 1.66619 13.2969 1.3679 12.8494C1.0696 12.3977 0.920455 11.8523 0.920455 11.2131C0.920455 10.6506 1.03125 10.1946 1.25284 9.84517C1.47443 9.49148 1.7706 9.21449 2.14134 9.0142C2.51207 8.81392 2.92116 8.66477 3.36861 8.56676C3.82031 8.46449 4.27415 8.38352 4.73011 8.32386C5.3267 8.24716 5.81037 8.18963 6.18111 8.15128C6.55611 8.10866 6.82884 8.03835 6.99929 7.94034C7.17401 7.84233 7.26136 7.67187 7.26136 7.42898V7.37784C7.26136 6.74716 7.08878 6.2571 6.74361 5.90767C6.4027 5.55824 5.88494 5.38352 5.19034 5.38352C4.47017 5.38352 3.90554 5.54119 3.49645 5.85653C3.08736 6.17187 2.79972 6.50852 2.63352 6.86648L1.2017 6.35511C1.45739 5.75852 1.7983 5.29403 2.22443 4.96165C2.65483 4.625 3.12358 4.39062 3.63068 4.25852C4.14205 4.12216 4.64489 4.05398 5.1392 4.05398C5.45455 4.05398 5.81676 4.09233 6.22585 4.16903C6.6392 4.24148 7.03764 4.39276 7.42116 4.62287C7.80895 4.85298 8.13068 5.20028 8.38636 5.66477C8.64205 6.12926 8.76989 6.75142 8.76989 7.53125V14H7.26136V12.6705H7.18466C7.08239 12.8835 6.91193 13.1115 6.6733 13.3544C6.43466 13.5973 6.11719 13.804 5.72088 13.9744C5.32457 14.1449 4.84091 14.2301 4.26989 14.2301ZM4.5 12.875C5.09659 12.875 5.59943 12.7578 6.00852 12.5234C6.42188 12.2891 6.73295 11.9865 6.94176 11.6158C7.15483 11.245 7.26136 10.8551 7.26136 10.446V9.06534C7.19744 9.14205 7.05682 9.21236 6.83949 9.27628C6.62642 9.33594 6.37926 9.3892 6.09801 9.43608C5.82102 9.47869 5.55043 9.51705 5.28622 9.55114C5.02628 9.58097 4.81534 9.60653 4.65341 9.62784C4.26136 9.67898 3.89489 9.76207 3.55398 9.87713C3.21733 9.98793 2.9446 10.1562 2.7358 10.3821C2.53125 10.6037 2.42898 10.9062 2.42898 11.2898C2.42898 11.8139 2.62287 12.2102 3.01065 12.4787C3.4027 12.7429 3.89915 12.875 4.5 12.875ZM11.5233 14V4.18182H12.9806V5.66477H13.0829C13.2619 5.17898 13.5858 4.7848 14.0545 4.48224C14.5233 4.17969 15.0517 4.02841 15.6397 4.02841C15.7505 4.02841 15.889 4.03054 16.0552 4.0348C16.2214 4.03906 16.3471 4.04545 16.4324 4.05398V5.58807C16.3812 5.57528 16.264 5.55611 16.0808 5.53054C15.9018 5.50071 15.7122 5.4858 15.5119 5.4858C15.0346 5.4858 14.6085 5.58594 14.2335 5.78622C13.8627 5.98224 13.5687 6.25497 13.3514 6.6044C13.1383 6.94957 13.0318 7.34375 13.0318 7.78693V14H11.5233ZM22.0382 14.2045C21.0922 14.2045 20.2761 13.9957 19.59 13.5781C18.9082 13.1562 18.3819 12.5682 18.0112 11.8139C17.6447 11.0554 17.4615 10.1733 17.4615 9.16761C17.4615 8.16193 17.6447 7.27557 18.0112 6.50852C18.3819 5.73722 18.8975 5.13636 19.5581 4.70597C20.2228 4.27131 20.9984 4.05398 21.8848 4.05398C22.3961 4.05398 22.9011 4.1392 23.3997 4.30966C23.8983 4.48011 24.3521 4.7571 24.7612 5.14062C25.1703 5.51989 25.4963 6.02273 25.7392 6.64915C25.9821 7.27557 26.1035 8.04687 26.1035 8.96307V9.60227H18.5353V8.2983H24.5694C24.5694 7.74432 24.4586 7.25 24.237 6.81534C24.0197 6.38068 23.7086 6.03764 23.3038 5.78622C22.9032 5.5348 22.4302 5.40909 21.8848 5.40909C21.2839 5.40909 20.764 5.55824 20.3251 5.85653C19.8904 6.15057 19.5559 6.53409 19.3216 7.0071C19.0872 7.48011 18.97 7.98722 18.97 8.52841V9.39773C18.97 10.1392 19.0978 10.7678 19.3535 11.2834C19.6135 11.7947 19.9735 12.1847 20.4338 12.4531C20.894 12.7173 21.4288 12.8494 22.0382 12.8494C22.4345 12.8494 22.7924 12.794 23.112 12.6832C23.4359 12.5682 23.715 12.3977 23.9494 12.1719C24.1838 11.9418 24.3649 11.6562 24.4927 11.3153L25.9501 11.7244C25.7967 12.2188 25.5389 12.6534 25.1767 13.0284C24.8145 13.3991 24.367 13.6889 23.8343 13.8977C23.3017 14.1023 22.7029 14.2045 22.0382 14.2045ZM34.9693 0.909091V14H33.4608V0.909091H34.9693ZM37.7322 14V4.18182H39.2408V14H37.7322ZM38.4993 2.54545C38.2053 2.54545 37.9517 2.44531 37.7386 2.24503C37.5298 2.04474 37.4254 1.80398 37.4254 1.52273C37.4254 1.24148 37.5298 1.00071 37.7386 0.800426C37.9517 0.600142 38.2053 0.5 38.4993 0.5C38.7933 0.5 39.0447 0.600142 39.2536 0.800426C39.4666 1.00071 39.5732 1.24148 39.5732 1.52273C39.5732 1.80398 39.4666 2.04474 39.2536 2.24503C39.0447 2.44531 38.7933 2.54545 38.4993 2.54545ZM43.5123 8.09375V14H42.0037V4.18182H43.4611V5.71591H43.589C43.8191 5.21733 44.1685 4.81676 44.6373 4.5142C45.106 4.20739 45.7111 4.05398 46.4526 4.05398C47.1174 4.05398 47.699 4.19034 48.1976 4.46307C48.6962 4.73153 49.084 5.14062 49.361 5.69034C49.638 6.2358 49.7765 6.92614 49.7765 7.76136V14H48.2679V7.86364C48.2679 7.09233 48.0676 6.49148 47.6671 6.06108C47.2665 5.62642 46.7168 5.40909 46.0179 5.40909C45.5364 5.40909 45.106 5.51349 44.7267 5.7223C44.3517 5.93111 44.0556 6.2358 43.8382 6.63636C43.6209 7.03693 43.5123 7.52273 43.5123 8.09375ZM56.6495 14.2045C55.7035 14.2045 54.8874 13.9957 54.2013 13.5781C53.5195 13.1562 52.9933 12.5682 52.6225 11.8139C52.256 11.0554 52.0728 10.1733 52.0728 9.16761C52.0728 8.16193 52.256 7.27557 52.6225 6.50852C52.9933 5.73722 53.5089 5.13636 54.1694 4.70597C54.8342 4.27131 55.6097 4.05398 56.4961 4.05398C57.0075 4.05398 57.5124 4.1392 58.011 4.30966C58.5096 4.48011 58.9634 4.7571 59.3725 5.14062C59.7816 5.51989 60.1076 6.02273 60.3505 6.64915C60.5934 7.27557 60.7148 8.04687 60.7148 8.96307V9.60227H53.1467V8.2983H59.1808C59.1808 7.74432 59.07 7.25 58.8484 6.81534C58.631 6.38068 58.32 6.03764 57.9151 5.78622C57.5146 5.5348 57.0415 5.40909 56.4961 5.40909C55.8952 5.40909 55.3754 5.55824 54.9364 5.85653C54.5018 6.15057 54.1673 6.53409 53.9329 7.0071C53.6985 7.48011 53.5813 7.98722 53.5813 8.52841V9.39773C53.5813 10.1392 53.7092 10.7678 53.9648 11.2834C54.2248 11.7947 54.5849 12.1847 55.0451 12.4531C55.5053 12.7173 56.0401 12.8494 56.6495 12.8494C57.0458 12.8494 57.4038 12.794 57.7234 12.6832C58.0472 12.5682 58.3263 12.3977 58.5607 12.1719C58.7951 11.9418 58.9762 11.6562 59.104 11.3153L60.5614 11.7244C60.408 12.2188 60.1502 12.6534 59.788 13.0284C59.4258 13.3991 58.9783 13.6889 58.4457 13.8977C57.913 14.1023 57.3143 14.2045 56.6495 14.2045ZM66.717 14.2045C65.8988 14.2045 65.1765 13.9979 64.5501 13.5845C63.9237 13.1669 63.4336 12.5788 63.0799 11.8203C62.7262 11.0575 62.5494 10.1562 62.5494 9.11648C62.5494 8.08523 62.7262 7.19034 63.0799 6.43182C63.4336 5.6733 63.9258 5.08736 64.5565 4.67401C65.1871 4.26065 65.9158 4.05398 66.7425 4.05398C67.3817 4.05398 67.8867 4.16051 68.2575 4.37358C68.6325 4.58239 68.918 4.82102 69.114 5.08949C69.3143 5.35369 69.4698 5.57102 69.5806 5.74148H69.7085V0.909091H71.217V14H69.7596V12.4915H69.5806C69.4698 12.6705 69.3121 12.8963 69.1076 13.169C68.9031 13.4375 68.6112 13.6783 68.2319 13.8913C67.8526 14.1001 67.3477 14.2045 66.717 14.2045ZM66.9215 12.8494C67.5266 12.8494 68.038 12.6918 68.4556 12.3764C68.8732 12.0568 69.1907 11.6158 69.408 11.0533C69.6254 10.4865 69.734 9.83239 69.734 9.09091C69.734 8.35795 69.6275 7.71662 69.4144 7.1669C69.2013 6.61293 68.886 6.18253 68.4684 5.87571C68.0508 5.56463 67.5352 5.40909 66.9215 5.40909C66.2823 5.40909 65.7496 5.57315 65.3235 5.90128C64.9016 6.22514 64.5842 6.66619 64.3711 7.22443C64.1623 7.77841 64.0579 8.40057 64.0579 9.09091C64.0579 9.78977 64.1644 10.4247 64.3775 10.9957C64.5948 11.5625 64.9144 12.0142 65.3363 12.3509C65.7624 12.6832 66.2908 12.8494 66.9215 12.8494ZM85.4393 9.9858V4.18182H86.9478V14H85.4393V12.3381H85.337C85.1069 12.8366 84.7489 13.2607 84.2631 13.6101C83.7773 13.9553 83.1637 14.1278 82.4222 14.1278C81.8086 14.1278 81.2631 13.9936 80.7859 13.7251C80.3086 13.4524 79.9336 13.0433 79.6609 12.4979C79.3881 11.9482 79.2518 11.2557 79.2518 10.4205V4.18182H80.7603V10.3182C80.7603 11.0341 80.9606 11.6051 81.3612 12.0312C81.766 12.4574 82.2816 12.6705 82.908 12.6705C83.283 12.6705 83.6644 12.5746 84.0522 12.3828C84.4442 12.1911 84.7724 11.897 85.0366 11.5007C85.305 11.1044 85.4393 10.5994 85.4393 9.9858ZM89.7108 17.6818V4.18182H91.1681V5.74148H91.3471C91.4579 5.57102 91.6113 5.35369 91.8074 5.08949C92.0076 4.82102 92.2931 4.58239 92.6639 4.37358C93.0389 4.16051 93.546 4.05398 94.1852 4.05398C95.0119 4.05398 95.7406 4.26065 96.3713 4.67401C97.002 5.08736 97.4941 5.6733 97.8478 6.43182C98.2015 7.19034 98.3784 8.08523 98.3784 9.11648C98.3784 10.1562 98.2015 11.0575 97.8478 11.8203C97.4941 12.5788 97.0041 13.1669 96.3777 13.5845C95.7512 13.9979 95.0289 14.2045 94.2108 14.2045C93.5801 14.2045 93.0751 14.1001 92.6958 13.8913C92.3166 13.6783 92.0247 13.4375 91.8201 13.169C91.6156 12.8963 91.4579 12.6705 91.3471 12.4915H91.2193V17.6818H89.7108ZM91.1937 9.09091C91.1937 9.83239 91.3024 10.4865 91.5197 11.0533C91.737 11.6158 92.0545 12.0568 92.4721 12.3764C92.8897 12.6918 93.4011 12.8494 94.0062 12.8494C94.6369 12.8494 95.1632 12.6832 95.5851 12.3509C96.0112 12.0142 96.3308 11.5625 96.5439 10.9957C96.7612 10.4247 96.8699 9.78977 96.8699 9.09091C96.8699 8.40057 96.7633 7.77841 96.5502 7.22443C96.3414 6.66619 96.024 6.22514 95.5978 5.90128C95.176 5.57315 94.6454 5.40909 94.0062 5.40909C93.3926 5.40909 92.877 5.56463 92.4593 5.87571C92.0417 6.18253 91.7264 6.61293 91.5133 7.1669C91.3002 7.71662 91.1937 8.35795 91.1937 9.09091ZM102.648 10.3182V10.2415C102.657 9.42756 102.742 8.77983 102.904 8.2983C103.066 7.81676 103.296 7.42685 103.594 7.12855C103.893 6.83026 104.251 6.5554 104.668 6.30398C104.92 6.15057 105.145 5.96946 105.346 5.76065C105.546 5.54758 105.704 5.30256 105.819 5.02557C105.938 4.74858 105.998 4.44176 105.998 4.10511C105.998 3.6875 105.9 3.32528 105.704 3.01847C105.508 2.71165 105.246 2.47514 104.917 2.30895C104.589 2.14276 104.225 2.05966 103.824 2.05966C103.475 2.05966 103.138 2.1321 102.814 2.27699C102.491 2.42187 102.22 2.64986 102.003 2.96094C101.785 3.27202 101.66 3.67898 101.626 4.18182H100.015C100.049 3.45739 100.236 2.83736 100.577 2.32173C100.922 1.80611 101.376 1.41193 101.939 1.1392C102.506 0.866477 103.134 0.730113 103.824 0.730113C104.574 0.730113 105.226 0.879261 105.78 1.17756C106.339 1.47585 106.769 1.88494 107.072 2.40483C107.378 2.92472 107.532 3.51704 107.532 4.18182C107.532 4.65057 107.459 5.07457 107.314 5.45384C107.174 5.8331 106.969 6.17187 106.701 6.47017C106.437 6.76847 106.117 7.03267 105.742 7.26278C105.367 7.49716 105.067 7.74432 104.841 8.00426C104.615 8.25994 104.451 8.56463 104.349 8.91832C104.246 9.27202 104.191 9.71307 104.182 10.2415V10.3182H102.648ZM103.466 14.1023C103.151 14.1023 102.881 13.9893 102.655 13.7635C102.429 13.5376 102.316 13.267 102.316 12.9517C102.316 12.6364 102.429 12.3658 102.655 12.1399C102.881 11.9141 103.151 11.8011 103.466 11.8011C103.782 11.8011 104.052 11.9141 104.278 12.1399C104.504 12.3658 104.617 12.6364 104.617 12.9517C104.617 13.1605 104.564 13.3523 104.457 13.527C104.355 13.7017 104.216 13.8423 104.042 13.9489C103.871 14.0511 103.68 14.1023 103.466 14.1023Z" fill="white"/>
</svg>
