<svg width="105" height="105" viewBox="0 0 105 105" fill="none" xmlns="http://www.w3.org/2000/svg">
<g clip-path="url(#clip0_17_1837)">
<path fill-rule="evenodd" clip-rule="evenodd" d="M52.5 90.5625C73.5213 90.5625 90.5625 73.5213 90.5625 52.5C90.5625 31.4787 73.5213 14.4375 52.5 14.4375C31.4787 14.4375 14.4375 31.4787 14.4375 52.5C14.4375 73.5213 31.4787 90.5625 52.5 90.5625ZM91.875 52.5C91.875 74.2462 74.2462 91.875 52.5 91.875C30.7538 91.875 13.125 74.2462 13.125 52.5C13.125 30.7538 30.7538 13.125 52.5 13.125C74.2462 13.125 91.875 30.7538 91.875 52.5Z" fill="#FFF308" fill-opacity="0.2"/>
<path fill-rule="evenodd" clip-rule="evenodd" d="M52.2812 85.3125C70.5239 85.3125 85.3125 70.5239 85.3125 52.2812C85.3125 34.0386 70.5239 19.25 52.2812 19.25C34.0386 19.25 19.25 34.0386 19.25 52.2812C19.25 70.5239 34.0386 85.3125 52.2812 85.3125ZM87.0625 52.2812C87.0625 71.4904 71.4904 87.0625 52.2812 87.0625C33.0721 87.0625 17.5 71.4904 17.5 52.2812C17.5 33.0721 33.0721 17.5 52.2812 17.5C71.4904 17.5 87.0625 33.0721 87.0625 52.2812Z" fill="#FFF308" fill-opacity="0.6"/>
<path fill-rule="evenodd" clip-rule="evenodd" d="M52.2812 81.8125C68.5909 81.8125 81.8125 68.5909 81.8125 52.2812C81.8125 35.9716 68.5909 22.75 52.2812 22.75C35.9716 22.75 22.75 35.9716 22.75 52.2812C22.75 68.5909 35.9716 81.8125 52.2812 81.8125Z" fill="#FFEC65"/>
</g>
<defs>
<clipPath id="clip0_17_1837">
<rect width="78.75" height="78.75" fill="white" transform="translate(13.125 13.125)"/>
</clipPath>
</defs>
</svg>
