<svg width="176" height="246" viewBox="0 0 176 246" fill="none" xmlns="http://www.w3.org/2000/svg">
<rect width="176" height="246" rx="10" fill="#245498"/>
<path d="M17.051 211.629V198.777H23.981C25.109 198.777 26.027 199.125 26.735 199.821C27.407 200.493 27.743 201.327 27.743 202.323C27.743 203.919 27.065 204.993 25.709 205.545V205.581C26.837 205.869 27.461 206.871 27.581 208.587C27.617 209.103 27.653 209.619 27.689 210.135C27.761 210.831 27.905 211.329 28.121 211.629H25.295C25.163 211.305 25.061 210.819 24.989 210.171C24.941 209.631 24.893 209.091 24.845 208.551C24.749 207.855 24.539 207.357 24.215 207.057C23.903 206.757 23.399 206.607 22.703 206.607H19.877V211.629H17.051ZM19.877 200.973V204.591H22.973C24.269 204.591 24.917 203.979 24.917 202.755C24.917 201.567 24.269 200.973 22.973 200.973H19.877ZM38.5912 207.597H31.8772C31.9492 209.169 32.7112 209.955 34.1632 209.955C34.6552 209.955 35.0992 209.823 35.4952 209.559C35.8672 209.331 36.0952 209.061 36.1792 208.749H38.4292C37.7452 210.837 36.2932 211.881 34.0732 211.881C32.6212 211.881 31.4632 211.431 30.5992 210.531C29.7472 209.619 29.3212 208.437 29.3212 206.985C29.3212 205.569 29.7592 204.399 30.6352 203.475C31.5232 202.539 32.6692 202.071 34.0732 202.071C35.5852 202.071 36.7552 202.635 37.5832 203.763C38.3512 204.795 38.6872 206.073 38.5912 207.597ZM31.8772 205.977H36.0352C35.7952 204.657 35.1172 203.997 34.0012 203.997C33.2812 203.997 32.7292 204.237 32.3452 204.717C32.0572 205.077 31.9012 205.497 31.8772 205.977ZM46.7491 211.629V210.441H46.7131C46.1491 211.401 45.2071 211.881 43.8871 211.881C42.5551 211.881 41.5111 211.371 40.7551 210.351C40.0591 209.427 39.7111 208.275 39.7111 206.895C39.7111 205.551 40.0591 204.435 40.7551 203.547C41.5111 202.563 42.5371 202.071 43.8331 202.071C45.0811 202.071 46.0051 202.533 46.6051 203.457H46.6231V198.777H49.1791V211.629H46.7491ZM46.7131 206.949C46.7131 206.097 46.5571 205.413 46.2451 204.897C45.8611 204.297 45.2851 203.997 44.5171 203.997C43.7371 203.997 43.1551 204.303 42.7711 204.915C42.4351 205.431 42.2671 206.115 42.2671 206.967C42.2671 207.783 42.4471 208.461 42.8071 209.001C43.2031 209.637 43.7731 209.955 44.5171 209.955C45.9811 209.955 46.7131 208.953 46.7131 206.949ZM59.841 202.323V211.629H57.411V210.333H57.357C56.721 211.365 55.773 211.881 54.513 211.881C53.229 211.881 52.323 211.527 51.795 210.819C51.339 210.231 51.111 209.307 51.111 208.047V202.323H53.667V207.579C53.667 209.103 54.213 209.865 55.305 209.865C56.001 209.865 56.505 209.655 56.817 209.235C57.129 208.815 57.285 208.137 57.285 207.201V202.323H59.841ZM70.619 205.599H68.117C67.949 204.531 67.319 203.997 66.227 203.997C65.483 203.997 64.913 204.327 64.517 204.987C64.205 205.539 64.049 206.217 64.049 207.021C64.049 207.801 64.205 208.455 64.517 208.983C64.889 209.631 65.441 209.955 66.173 209.955C67.349 209.955 68.027 209.325 68.207 208.065H70.673C70.517 209.289 70.037 210.231 69.233 210.891C68.441 211.551 67.427 211.881 66.191 211.881C64.799 211.881 63.665 211.437 62.789 210.549C61.925 209.661 61.493 208.515 61.493 207.111C61.493 205.623 61.907 204.423 62.735 203.511C63.599 202.551 64.769 202.071 66.245 202.071C67.421 202.071 68.405 202.359 69.197 202.935C70.073 203.583 70.547 204.471 70.619 205.599ZM80.9369 207.597H74.2229C74.2949 209.169 75.0569 209.955 76.5089 209.955C77.0009 209.955 77.4449 209.823 77.8409 209.559C78.2129 209.331 78.4409 209.061 78.5249 208.749H80.7749C80.0909 210.837 78.6389 211.881 76.4189 211.881C74.9669 211.881 73.8089 211.431 72.9449 210.531C72.0929 209.619 71.6669 208.437 71.6669 206.985C71.6669 205.569 72.1049 204.399 72.9809 203.475C73.8689 202.539 75.0149 202.071 76.4189 202.071C77.9309 202.071 79.1009 202.635 79.9289 203.763C80.6969 204.795 81.0329 206.073 80.9369 207.597ZM74.2229 205.977H78.3809C78.1409 204.657 77.4629 203.997 76.3469 203.997C75.6269 203.997 75.0749 204.237 74.6909 204.717C74.4029 205.077 74.2469 205.497 74.2229 205.977ZM86.9226 207.363H89.6586C89.6586 208.167 89.9466 208.779 90.5226 209.199C91.0146 209.559 91.6746 209.739 92.5026 209.739C93.1506 209.739 93.6906 209.637 94.1226 209.433C94.7106 209.157 95.0046 208.725 95.0046 208.137C95.0046 207.405 94.3446 206.853 93.0246 206.481C90.7446 205.833 89.5146 205.461 89.3346 205.365C88.0146 204.729 87.3546 203.727 87.3546 202.359C87.3546 201.123 87.8646 200.145 88.8846 199.425C89.7966 198.789 90.8886 198.471 92.1606 198.471C93.6366 198.471 94.8306 198.789 95.7426 199.425C96.7866 200.157 97.3086 201.219 97.3086 202.611H94.5726C94.5006 201.315 93.6546 200.667 92.0346 200.667C91.5186 200.667 91.0806 200.775 90.7206 200.991C90.3006 201.255 90.0906 201.633 90.0906 202.125C90.0906 202.593 90.3246 202.935 90.7926 203.151C91.1526 203.319 92.1966 203.625 93.9246 204.069C94.9326 204.321 95.6826 204.609 96.1746 204.933C97.2186 205.605 97.7406 206.565 97.7406 207.813C97.7406 209.037 97.2846 210.021 96.3726 210.765C95.4126 211.545 94.0866 211.935 92.3946 211.935C90.8466 211.935 89.5746 211.569 88.5786 210.837C87.4626 210.009 86.9106 208.851 86.9226 207.363ZM102.392 199.533V202.323H104.264V204.033H102.392V208.641C102.392 209.073 102.464 209.361 102.608 209.505C102.752 209.649 103.04 209.721 103.472 209.721C103.76 209.721 104.024 209.697 104.264 209.649V211.647C103.904 211.707 103.406 211.737 102.77 211.737C100.814 211.737 99.8361 210.999 99.8361 209.523V204.033H98.2881V202.323H99.8361V199.533H102.392ZM114.3 207.597H107.586C107.658 209.169 108.42 209.955 109.872 209.955C110.364 209.955 110.808 209.823 111.204 209.559C111.576 209.331 111.804 209.061 111.888 208.749H114.138C113.454 210.837 112.002 211.881 109.782 211.881C108.33 211.881 107.172 211.431 106.308 210.531C105.456 209.619 105.03 208.437 105.03 206.985C105.03 205.569 105.468 204.399 106.344 203.475C107.232 202.539 108.378 202.071 109.782 202.071C111.294 202.071 112.464 202.635 113.292 203.763C114.06 204.795 114.396 206.073 114.3 207.597ZM107.586 205.977H111.744C111.504 204.657 110.826 203.997 109.71 203.997C108.99 203.997 108.438 204.237 108.054 204.717C107.766 205.077 107.61 205.497 107.586 205.977ZM115.366 208.605H117.796C117.808 209.133 118.012 209.535 118.408 209.811C118.756 210.051 119.206 210.171 119.758 210.171C120.202 210.171 120.574 210.087 120.874 209.919C121.246 209.703 121.432 209.391 121.432 208.983C121.432 208.623 121.18 208.335 120.676 208.119C120.316 207.963 119.602 207.771 118.534 207.543C117.622 207.351 116.944 207.099 116.5 206.787C115.888 206.379 115.582 205.803 115.582 205.059C115.582 203.067 116.932 202.071 119.632 202.071C122.2 202.071 123.568 203.061 123.736 205.041H121.306C121.246 204.201 120.664 203.781 119.56 203.781C118.612 203.781 118.138 204.069 118.138 204.645C118.138 205.041 118.438 205.347 119.038 205.563C119.11 205.587 119.776 205.743 121.036 206.031C121.96 206.247 122.638 206.511 123.07 206.823C123.682 207.255 123.988 207.861 123.988 208.641C123.988 209.769 123.544 210.615 122.656 211.179C121.924 211.647 120.952 211.881 119.74 211.881C118.528 211.881 117.544 211.641 116.788 211.161C115.888 210.597 115.414 209.745 115.366 208.605ZM125.034 208.605H127.464C127.476 209.133 127.68 209.535 128.076 209.811C128.424 210.051 128.874 210.171 129.426 210.171C129.87 210.171 130.242 210.087 130.542 209.919C130.914 209.703 131.1 209.391 131.1 208.983C131.1 208.623 130.848 208.335 130.344 208.119C129.984 207.963 129.27 207.771 128.202 207.543C127.29 207.351 126.612 207.099 126.168 206.787C125.556 206.379 125.25 205.803 125.25 205.059C125.25 203.067 126.6 202.071 129.3 202.071C131.868 202.071 133.236 203.061 133.404 205.041H130.974C130.914 204.201 130.332 203.781 129.228 203.781C128.28 203.781 127.806 204.069 127.806 204.645C127.806 205.041 128.106 205.347 128.706 205.563C128.778 205.587 129.444 205.743 130.704 206.031C131.628 206.247 132.306 206.511 132.738 206.823C133.35 207.255 133.656 207.861 133.656 208.641C133.656 209.769 133.212 210.615 132.324 211.179C131.592 211.647 130.62 211.881 129.408 211.881C128.196 211.881 127.212 211.641 126.456 211.161C125.556 210.597 125.082 209.745 125.034 208.605Z" fill="#245498"/>
</svg>
