<svg width="114" height="103" viewBox="0 0 114 103" fill="none" xmlns="http://www.w3.org/2000/svg">
<path fill-rule="evenodd" clip-rule="evenodd" d="M54.748 40.3554L46.4855 33.1656C45.5142 32.3204 45.5051 30.958 46.4804 30.1094C47.4488 29.2667 49.0204 29.2679 49.9926 30.1139L54.748 34.2519V21.4138C54.748 20.2182 55.8488 19.249 57.2279 19.249C58.5975 19.249 59.7078 20.2052 59.7078 21.4138V34.3209L64.5426 30.1139C65.5139 29.2687 67.0796 29.2608 68.0548 30.1094C69.0233 30.9521 69.0219 32.3197 68.0497 33.1656L59.7078 40.4244V73.1808L68.077 80.4634C69.0491 81.3093 69.0506 82.6769 68.0821 83.5196C67.1069 84.3682 65.5412 84.3603 64.5699 83.5151L59.7078 79.2844V92.252C59.7078 93.4475 58.6071 94.4167 57.2279 94.4167C55.8583 94.4167 54.748 93.4605 54.748 92.252V79.2929L49.8958 83.5151C48.9237 84.3611 47.3521 84.3623 46.3836 83.5196C45.4084 82.671 45.4174 81.3085 46.3887 80.4634L54.748 73.1894V40.3554Z" fill="white"/>
<path fill-rule="evenodd" clip-rule="evenodd" d="M73.9287 62.9893L84.8981 60.1134C86.1876 59.7753 87.4913 60.4494 87.815 61.6375C88.1364 62.8173 87.3528 64.0475 86.0621 64.3858L79.7488 66.041L90.9408 72.5215C92.0808 73.1193 92.457 74.466 91.7704 75.546C91.0885 76.6186 89.624 77.0101 88.4715 76.4058L77.2137 69.8908L78.8184 75.7807C79.1408 76.9639 78.3688 78.1941 77.0741 78.5335C75.7884 78.8706 74.485 78.1857 74.1623 77.0014L71.3937 66.839L40.1586 50.4608L29.0477 53.3738C27.7571 53.7122 26.4523 53.0296 26.1309 51.8497C25.8072 50.6617 26.5942 49.4394 27.8837 49.1014L34.3385 47.4091L23.0231 40.8638C21.8831 40.2661 21.5069 38.9194 22.1935 37.8393C22.8754 36.7667 24.3399 36.3753 25.4923 36.9796L36.7996 43.5205L35.1892 37.6094C34.8665 36.4251 35.6478 35.1937 36.9335 34.8566C38.2282 34.5171 39.5229 35.2055 39.8452 36.3887L42.6197 46.5723L73.9287 62.9893Z" fill="white"/>
<path fill-rule="evenodd" clip-rule="evenodd" d="M42.5061 66.9068L39.7637 76.9725C39.4413 78.1557 38.1467 78.8441 36.852 78.5046C35.5662 78.1675 34.785 76.9361 35.1077 75.7518L36.686 69.9585L25.494 76.439C24.354 77.0368 22.8818 76.6594 22.1952 75.5793C21.5133 74.5067 21.8723 73.1591 23.0248 72.5548L34.2826 66.0398L27.8639 64.3569C26.5744 64.0189 25.7874 62.7966 26.1111 61.6086C26.4325 60.4288 27.7373 59.7461 29.0279 60.0845L40.1026 62.988L71.3377 46.6098L74.1154 36.4143C74.4381 35.2299 75.7414 34.545 77.0272 34.8821C78.3218 35.2216 79.0938 36.4517 78.7715 37.635L77.1578 43.558L88.4732 37.0128C89.6132 36.415 91.0854 36.7925 91.772 37.8726C92.4539 38.9452 92.0949 40.2928 90.9424 40.8971L79.6351 47.438L86.0769 49.1269C87.3676 49.4653 88.1512 50.6955 87.8298 51.8753C87.5061 53.0633 86.2024 53.7375 84.9129 53.3994L73.8151 50.4898L42.5061 66.9068Z" fill="white"/>
<path d="M51.7287 40.5804L44.8687 34.6448C42.9266 32.9644 42.9177 30.209 44.8636 28.5254C46.7475 26.8954 49.7616 26.8987 51.6468 28.5299L52.494 29.1734V21.3166C52.494 18.9287 54.6751 17.0305 57.3374 17.0305C59.9952 17.0305 62.1808 18.9197 62.1808 21.3166V29.1734L63.108 28.5299C64.994 26.8981 68.0022 26.8908 69.8913 28.5254C71.8318 30.2044 71.8276 32.9649 69.8861 34.6448L63.0262 40.5804H70.8362L72.1253 35.8756C72.7694 33.5246 75.4098 32.1436 77.985 32.815C80.4995 33.4705 81.9959 35.8257 81.3683 38.1161L81.0228 39.3463L84.9821 36.8677C85.9386 35.5746 86.495 34.0274 86.495 32.3649C86.495 29.232 84.5192 26.5086 81.6131 25.1229C81.6198 24.9433 81.6232 24.7629 81.6232 24.5818C81.6232 15.7461 73.5529 8.58331 63.5976 8.58331C55.7004 8.58331 48.9893 13.0907 46.552 19.365C44.8016 18.5543 42.8112 18.0959 40.7001 18.0959C33.7045 18.0959 28.0335 23.1293 28.0335 29.3381C28.0335 32.9033 29.9033 36.0809 32.82 38.1405L32.8063 38.0904C32.1789 35.8009 33.682 33.443 36.1896 32.7893C38.7719 32.1161 41.4049 33.4982 42.0493 35.8499L43.3454 40.5804H51.7287Z" fill="white"/>
</svg>
