<svg width="105" height="102" viewBox="0 0 105 102" fill="none" xmlns="http://www.w3.org/2000/svg">
<path d="M85.2989 41.7066C85.308 41.4382 85.3126 41.1686 85.3126 40.898C85.3126 27.695 74.4415 16.9918 61.0313 16.9918C50.3934 16.9918 41.3533 23.7271 38.0702 33.1026C35.7124 31.8912 33.0312 31.2063 30.1875 31.2063C20.7641 31.2063 13.125 38.7275 13.125 48.0053C13.125 57.2831 20.7641 64.8043 30.1875 64.8043L61.0313 64.8043C61.0422 64.8043 61.0531 64.8043 61.064 64.8043H79.4063C86.2926 64.8043 91.875 59.308 91.875 52.5281C91.875 47.8466 89.2135 43.7772 85.2989 41.7066Z" fill="white"/>
<path d="M39.5344 70.8999C39.9166 69.7574 41.158 69.1245 42.3069 69.4868C43.4557 69.8494 44.0775 71.0698 43.6956 72.2124L36.2747 94.4009C35.8925 95.5434 34.6511 96.1755 33.5022 95.813C32.3532 95.4503 31.7313 94.23 32.1135 93.0874L39.5344 70.8999ZM65.8635 70.8999C66.2457 69.7573 67.487 69.1242 68.636 69.4868C69.785 69.8495 70.4068 71.0707 70.0247 72.2134L62.6028 94.4009C62.2206 95.5435 60.9793 96.1756 59.8303 95.813C58.6815 95.4502 58.0595 94.23 58.4416 93.0874L65.8635 70.8999ZM48.343 70.8999C48.7252 69.7572 49.9665 69.1241 51.1155 69.4868C52.2644 69.8495 52.8853 71.0708 52.5032 72.2134L46.8831 89.0161C46.5009 90.1587 45.2596 90.7909 44.1106 90.4282C42.9618 90.0654 42.3398 88.8452 42.7219 87.7026L48.343 70.8999ZM74.5627 70.8999C74.9449 69.7572 76.1862 69.1241 77.3352 69.4868C78.4841 69.8495 79.1051 71.0708 78.7229 72.2134L73.1028 89.0161C72.7206 90.1587 71.4793 90.7909 70.3303 90.4282C69.1815 90.0654 68.5595 88.8452 68.9416 87.7026L74.5627 70.8999ZM30.7268 70.8999C31.109 69.7574 32.3504 69.1244 33.4993 69.4868C34.6481 69.8494 35.2698 71.0699 34.8879 72.2124L31.0686 83.6313C30.6864 84.7739 29.4451 85.4061 28.2961 85.0434C27.1473 84.6807 26.5253 83.4604 26.9075 82.3179L30.7268 70.8999ZM57.1497 70.8999C57.5318 69.7574 58.7733 69.1245 59.9221 69.4868C61.071 69.8494 61.6927 71.0698 61.3108 72.2124L57.4915 83.6313C57.1092 84.7739 55.868 85.4061 54.719 85.0434C53.5702 84.6807 52.9491 83.4604 53.3313 82.3179L57.1497 70.8999Z" fill="#B4F5F2"/>
</svg>
