<svg width="88" height="15" viewBox="0 0 88 15" fill="none" xmlns="http://www.w3.org/2000/svg">
<path d="M0.585227 14V0.909091H2.17045V6.73864H9.15057V0.909091H10.7358V14H9.15057V8.14489H2.17045V14H0.585227ZM17.6935 14.2045C16.8072 14.2045 16.0295 13.9936 15.3604 13.5717C14.6957 13.1499 14.1758 12.5597 13.8008 11.8011C13.43 11.0426 13.2447 10.1562 13.2447 9.14205C13.2447 8.11932 13.43 7.22656 13.8008 6.46378C14.1758 5.70099 14.6957 5.10866 15.3604 4.68679C16.0295 4.26491 16.8072 4.05398 17.6935 4.05398C18.5799 4.05398 19.3555 4.26491 20.0202 4.68679C20.6893 5.10866 21.2092 5.70099 21.5799 6.46378C21.9549 7.22656 22.1424 8.11932 22.1424 9.14205C22.1424 10.1562 21.9549 11.0426 21.5799 11.8011C21.2092 12.5597 20.6893 13.1499 20.0202 13.5717C19.3555 13.9936 18.5799 14.2045 17.6935 14.2045ZM17.6935 12.8494C18.3668 12.8494 18.9208 12.6768 19.3555 12.3317C19.7901 11.9865 20.1119 11.5327 20.3207 10.9702C20.5295 10.4077 20.6339 9.7983 20.6339 9.14205C20.6339 8.4858 20.5295 7.87429 20.3207 7.30753C20.1119 6.74077 19.7901 6.28267 19.3555 5.93324C18.9208 5.58381 18.3668 5.40909 17.6935 5.40909C17.0202 5.40909 16.4663 5.58381 16.0316 5.93324C15.5969 6.28267 15.2752 6.74077 15.0664 7.30753C14.8576 7.87429 14.7532 8.4858 14.7532 9.14205C14.7532 9.7983 14.8576 10.4077 15.0664 10.9702C15.2752 11.5327 15.5969 11.9865 16.0316 12.3317C16.4663 12.6768 17.0202 12.8494 17.6935 12.8494ZM26.3356 14L23.3441 4.18182H24.9293L27.0515 11.6989H27.1538L29.2504 4.18182H30.8612L32.9322 11.6733H33.0344L35.1566 4.18182H36.7418L33.7504 14H32.2674L30.1197 6.45739H29.9663L27.8185 14H26.3356ZM40.8391 0.909091V2.05966C40.8391 2.40909 40.7752 2.78196 40.6474 3.17827C40.5238 3.57031 40.3406 3.9517 40.0977 4.32244C39.859 4.68892 39.5692 5.00852 39.2283 5.28125L38.4102 4.61648C38.6786 4.23295 38.9109 3.83452 39.1069 3.42116C39.3072 3.00355 39.4073 2.55824 39.4073 2.08523V0.909091H40.8391ZM48.3977 6.38068L47.0426 6.7642C46.9574 6.53835 46.8317 6.31889 46.6655 6.10582C46.5036 5.88849 46.282 5.70952 46.0007 5.56889C45.7195 5.42827 45.3594 5.35795 44.9205 5.35795C44.3196 5.35795 43.8189 5.49645 43.4183 5.77344C43.022 6.04616 42.8239 6.39347 42.8239 6.81534C42.8239 7.19034 42.9602 7.48651 43.233 7.70384C43.5057 7.92116 43.9318 8.10227 44.5114 8.24716L45.9688 8.60511C46.8466 8.81818 47.5007 9.14418 47.9311 9.5831C48.3615 10.0178 48.5767 10.5781 48.5767 11.2642C48.5767 11.8267 48.4148 12.3295 48.0909 12.7727C47.7713 13.2159 47.3239 13.5653 46.7486 13.821C46.1733 14.0767 45.5043 14.2045 44.7415 14.2045C43.7401 14.2045 42.9112 13.9872 42.255 13.5526C41.5987 13.1179 41.1832 12.483 41.0085 11.6477L42.4403 11.2898C42.5767 11.8182 42.8345 12.2145 43.2138 12.4787C43.5973 12.7429 44.098 12.875 44.7159 12.875C45.419 12.875 45.9773 12.7259 46.3906 12.4276C46.8082 12.125 47.017 11.7628 47.017 11.3409C47.017 11 46.8977 10.7145 46.6591 10.4844C46.4205 10.25 46.054 10.0753 45.5597 9.96023L43.9233 9.5767C43.0241 9.36364 42.3636 9.03338 41.9418 8.58594C41.5241 8.13423 41.3153 7.5696 41.3153 6.89205C41.3153 6.33807 41.4709 5.84801 41.782 5.42188C42.0973 4.99574 42.5256 4.66122 43.0668 4.41832C43.6122 4.17543 44.2301 4.05398 44.9205 4.05398C45.892 4.05398 46.6548 4.26705 47.2088 4.69318C47.767 5.11932 48.1634 5.68182 48.3977 6.38068ZM60.1799 4.18182V5.46023H55.0918V4.18182H60.1799ZM56.5748 1.82955H58.0833V11.1875C58.0833 11.6136 58.1451 11.9332 58.2686 12.1463C58.3965 12.3551 58.5584 12.4957 58.7544 12.5682C58.9547 12.6364 59.1657 12.6705 59.3873 12.6705C59.5534 12.6705 59.6898 12.6619 59.7963 12.6449C59.9029 12.6236 59.9881 12.6065 60.052 12.5938L60.3588 13.9489C60.2566 13.9872 60.1138 14.0256 59.9306 14.0639C59.7473 14.1065 59.5151 14.1278 59.2338 14.1278C58.8077 14.1278 58.3901 14.0362 57.981 13.853C57.5762 13.6697 57.2395 13.3906 56.9711 13.0156C56.7069 12.6406 56.5748 12.1676 56.5748 11.5966V1.82955ZM64.1685 8.09375V14H62.66V0.909091H64.1685V5.71591H64.2963C64.5265 5.20881 64.8716 4.80611 65.3319 4.50781C65.7963 4.20526 66.4142 4.05398 67.1855 4.05398C67.8546 4.05398 68.4405 4.18821 68.9434 4.45668C69.4462 4.72088 69.8361 5.12784 70.1131 5.67756C70.3944 6.22301 70.535 6.91761 70.535 7.76136V14H69.0265V7.86364C69.0265 7.08381 68.824 6.48082 68.4192 6.05469C68.0186 5.62429 67.4625 5.40909 66.7509 5.40909C66.2566 5.40909 65.8134 5.51349 65.4213 5.7223C65.0336 5.93111 64.7267 6.2358 64.5009 6.63636C64.2793 7.03693 64.1685 7.52273 64.1685 8.09375ZM76.1839 14.2301C75.5618 14.2301 74.9972 14.1129 74.4901 13.8786C73.983 13.6399 73.5803 13.2969 73.282 12.8494C72.9837 12.3977 72.8345 11.8523 72.8345 11.2131C72.8345 10.6506 72.9453 10.1946 73.1669 9.84517C73.3885 9.49148 73.6847 9.21449 74.0554 9.0142C74.4261 8.81392 74.8352 8.66477 75.2827 8.56676C75.7344 8.46449 76.1882 8.38352 76.6442 8.32386C77.2408 8.24716 77.7244 8.18963 78.0952 8.15128C78.4702 8.10866 78.7429 8.03835 78.9134 7.94034C79.0881 7.84233 79.1754 7.67187 79.1754 7.42898V7.37784C79.1754 6.74716 79.0028 6.2571 78.6577 5.90767C78.3168 5.55824 77.799 5.38352 77.1044 5.38352C76.3842 5.38352 75.8196 5.54119 75.4105 5.85653C75.0014 6.17187 74.7138 6.50852 74.5476 6.86648L73.1158 6.35511C73.3714 5.75852 73.7124 5.29403 74.1385 4.96165C74.5689 4.625 75.0376 4.39062 75.5447 4.25852C76.0561 4.12216 76.5589 4.05398 77.0533 4.05398C77.3686 4.05398 77.7308 4.09233 78.1399 4.16903C78.5533 4.24148 78.9517 4.39276 79.3352 4.62287C79.723 4.85298 80.0447 5.20028 80.3004 5.66477C80.5561 6.12926 80.6839 6.75142 80.6839 7.53125V14H79.1754V12.6705H79.0987C78.9964 12.8835 78.826 13.1115 78.5874 13.3544C78.3487 13.5973 78.0313 13.804 77.6349 13.9744C77.2386 14.1449 76.755 14.2301 76.1839 14.2301ZM76.4141 12.875C77.0107 12.875 77.5135 12.7578 77.9226 12.5234C78.3359 12.2891 78.647 11.9865 78.8558 11.6158C79.0689 11.245 79.1754 10.8551 79.1754 10.446V9.06534C79.1115 9.14205 78.9709 9.21236 78.7536 9.27628C78.5405 9.33594 78.2933 9.3892 78.0121 9.43608C77.7351 9.47869 77.4645 9.51705 77.2003 9.55114C76.9403 9.58097 76.7294 9.60653 76.5675 9.62784C76.1754 9.67898 75.8089 9.76207 75.468 9.87713C75.1314 9.98793 74.8587 10.1562 74.6499 10.3821C74.4453 10.6037 74.343 10.9062 74.343 11.2898C74.343 11.8139 74.5369 12.2102 74.9247 12.4787C75.3168 12.7429 75.8132 12.875 76.4141 12.875ZM87.7072 4.18182V5.46023H82.6191V4.18182H87.7072ZM84.1021 1.82955H85.6106V11.1875C85.6106 11.6136 85.6724 11.9332 85.796 12.1463C85.9238 12.3551 86.0858 12.4957 86.2818 12.5682C86.4821 12.6364 86.693 12.6705 86.9146 12.6705C87.0808 12.6705 87.2172 12.6619 87.3237 12.6449C87.4302 12.6236 87.5154 12.6065 87.5794 12.5938L87.8862 13.9489C87.7839 13.9872 87.6412 14.0256 87.4579 14.0639C87.2747 14.1065 87.0424 14.1278 86.7612 14.1278C86.335 14.1278 85.9174 14.0362 85.5083 13.853C85.1035 13.6697 84.7669 13.3906 84.4984 13.0156C84.2342 12.6406 84.1021 12.1676 84.1021 11.5966V1.82955Z" fill="black"/>
</svg>
