<svg width="69" height="18" viewBox="0 0 69 18" fill="none" xmlns="http://www.w3.org/2000/svg">
<path d="M1.8892 0.909091V14H0.380682V0.909091H1.8892ZM8.6408 14.2045C7.75444 14.2045 6.97674 13.9936 6.30771 13.5717C5.64293 13.1499 5.12305 12.5597 4.74805 11.8011C4.37731 11.0426 4.19194 10.1562 4.19194 9.14205C4.19194 8.11932 4.37731 7.22656 4.74805 6.46378C5.12305 5.70099 5.64293 5.10866 6.30771 4.68679C6.97674 4.26491 7.75444 4.05398 8.6408 4.05398C9.52717 4.05398 10.3027 4.26491 10.9675 4.68679C11.6365 5.10866 12.1564 5.70099 12.5272 6.46378C12.9022 7.22656 13.0897 8.11932 13.0897 9.14205C13.0897 10.1562 12.9022 11.0426 12.5272 11.8011C12.1564 12.5597 11.6365 13.1499 10.9675 13.5717C10.3027 13.9936 9.52717 14.2045 8.6408 14.2045ZM8.6408 12.8494C9.3141 12.8494 9.86808 12.6768 10.3027 12.3317C10.7374 11.9865 11.0591 11.5327 11.2679 10.9702C11.4767 10.4077 11.5811 9.7983 11.5811 9.14205C11.5811 8.4858 11.4767 7.87429 11.2679 7.30753C11.0591 6.74077 10.7374 6.28267 10.3027 5.93324C9.86808 5.58381 9.3141 5.40909 8.6408 5.40909C7.96751 5.40909 7.41353 5.58381 6.97887 5.93324C6.54421 6.28267 6.22248 6.74077 6.01367 7.30753C5.80487 7.87429 5.70046 8.4858 5.70046 9.14205C5.70046 9.7983 5.80487 10.4077 6.01367 10.9702C6.22248 11.5327 6.54421 11.9865 6.97887 12.3317C7.41353 12.6768 7.96751 12.8494 8.6408 12.8494ZM19.381 14.2045C18.4947 14.2045 17.717 13.9936 17.0479 13.5717C16.3832 13.1499 15.8633 12.5597 15.4883 11.8011C15.1175 11.0426 14.9322 10.1562 14.9322 9.14205C14.9322 8.11932 15.1175 7.22656 15.4883 6.46378C15.8633 5.70099 16.3832 5.10866 17.0479 4.68679C17.717 4.26491 18.4947 4.05398 19.381 4.05398C20.2674 4.05398 21.043 4.26491 21.7077 4.68679C22.3768 5.10866 22.8967 5.70099 23.2674 6.46378C23.6424 7.22656 23.8299 8.11932 23.8299 9.14205C23.8299 10.1562 23.6424 11.0426 23.2674 11.8011C22.8967 12.5597 22.3768 13.1499 21.7077 13.5717C21.043 13.9936 20.2674 14.2045 19.381 14.2045ZM19.381 12.8494C20.0543 12.8494 20.6083 12.6768 21.043 12.3317C21.4776 11.9865 21.7994 11.5327 22.0082 10.9702C22.217 10.4077 22.3214 9.7983 22.3214 9.14205C22.3214 8.4858 22.217 7.87429 22.0082 7.30753C21.7994 6.74077 21.4776 6.28267 21.043 5.93324C20.6083 5.58381 20.0543 5.40909 19.381 5.40909C18.7077 5.40909 18.1538 5.58381 17.7191 5.93324C17.2844 6.28267 16.9627 6.74077 16.7539 7.30753C16.5451 7.87429 16.4407 8.4858 16.4407 9.14205C16.4407 9.7983 16.5451 10.4077 16.7539 10.9702C16.9627 11.5327 17.2844 11.9865 17.7191 12.3317C18.1538 12.6768 18.7077 12.8494 19.381 12.8494ZM27.5389 10.4205L27.5133 8.55398H27.8201L32.1156 4.18182H33.9821L29.4054 8.80966H29.2775L27.5389 10.4205ZM26.1326 14V0.909091H27.6412V14H26.1326ZM32.3713 14L28.536 9.14205L29.6099 8.09375L34.2889 14H32.3713ZM35.9237 14V4.18182H37.4322V14H35.9237ZM36.6907 2.54545C36.3967 2.54545 36.1431 2.44531 35.93 2.24503C35.7212 2.04474 35.6168 1.80398 35.6168 1.52273C35.6168 1.24148 35.7212 1.00071 35.93 0.800426C36.1431 0.600142 36.3967 0.5 36.6907 0.5C36.9847 0.5 37.2362 0.600142 37.445 0.800426C37.658 1.00071 37.7646 1.24148 37.7646 1.52273C37.7646 1.80398 37.658 2.04474 37.445 2.24503C37.2362 2.44531 36.9847 2.54545 36.6907 2.54545ZM41.7037 8.09375V14H40.1951V4.18182H41.6525V5.71591H41.7804C42.0105 5.21733 42.3599 4.81676 42.8287 4.5142C43.2974 4.20739 43.9025 4.05398 44.644 4.05398C45.3088 4.05398 45.8904 4.19034 46.389 4.46307C46.8876 4.73153 47.2754 5.14062 47.5524 5.69034C47.8294 6.2358 47.9679 6.92614 47.9679 7.76136V14H46.4593V7.86364C46.4593 7.09233 46.2591 6.49148 45.8585 6.06108C45.4579 5.62642 44.9082 5.40909 44.2093 5.40909C43.7278 5.40909 43.2974 5.51349 42.9181 5.7223C42.5431 5.93111 42.247 6.2358 42.0297 6.63636C41.8123 7.03693 41.7037 7.52273 41.7037 8.09375ZM54.6875 17.8864C53.9588 17.8864 53.3324 17.7926 52.8082 17.6051C52.2841 17.4219 51.8473 17.179 51.4979 16.8764C51.1527 16.5781 50.8778 16.2585 50.6733 15.9176L51.875 15.0739C52.0114 15.2528 52.1839 15.4574 52.3928 15.6875C52.6016 15.9219 52.8871 16.1243 53.2493 16.2947C53.6158 16.4695 54.0952 16.5568 54.6875 16.5568C55.4801 16.5568 56.1342 16.3651 56.6499 15.9815C57.1655 15.598 57.4233 14.9972 57.4233 14.179V12.1847H57.2955C57.1847 12.3636 57.027 12.5852 56.8224 12.8494C56.6222 13.1094 56.3324 13.3416 55.9531 13.5462C55.5781 13.7464 55.071 13.8466 54.4318 13.8466C53.6392 13.8466 52.9276 13.6591 52.2969 13.2841C51.6705 12.9091 51.174 12.3636 50.8075 11.6477C50.4453 10.9318 50.2642 10.0625 50.2642 9.03977C50.2642 8.03409 50.4411 7.15838 50.7947 6.41264C51.1484 5.66264 51.6406 5.0831 52.2713 4.67401C52.902 4.26065 53.6307 4.05398 54.4574 4.05398C55.0966 4.05398 55.6037 4.16051 55.9787 4.37358C56.358 4.58239 56.6477 4.82102 56.848 5.08949C57.0526 5.35369 57.2102 5.57102 57.321 5.74148H57.4744V4.18182H58.9318V14.2812C58.9318 15.125 58.7401 15.8111 58.3565 16.3395C57.9773 16.8722 57.4659 17.2621 56.8224 17.5092C56.1832 17.7607 55.4716 17.8864 54.6875 17.8864ZM54.6364 12.4915C55.2415 12.4915 55.7528 12.353 56.1705 12.076C56.5881 11.799 56.9055 11.4006 57.1229 10.8807C57.3402 10.3608 57.4489 9.73864 57.4489 9.0142C57.4489 8.30682 57.3423 7.68253 57.1293 7.14134C56.9162 6.60014 56.6009 6.17614 56.1832 5.86932C55.7656 5.5625 55.25 5.40909 54.6364 5.40909C53.9972 5.40909 53.4645 5.57102 53.0384 5.89489C52.6165 6.21875 52.299 6.65341 52.0859 7.19886C51.8771 7.74432 51.7727 8.34943 51.7727 9.0142C51.7727 9.69602 51.8793 10.299 52.0923 10.8232C52.3097 11.343 52.6293 11.7521 53.0511 12.0504C53.4773 12.3445 54.0057 12.4915 54.6364 12.4915ZM63.6619 10.3182V10.2415C63.6705 9.42756 63.7557 8.77983 63.9176 8.2983C64.0795 7.81676 64.3097 7.42685 64.608 7.12855C64.9062 6.83026 65.2642 6.5554 65.6818 6.30398C65.9332 6.15057 66.1591 5.96946 66.3594 5.76065C66.5597 5.54758 66.7173 5.30256 66.8324 5.02557C66.9517 4.74858 67.0114 4.44176 67.0114 4.10511C67.0114 3.6875 66.9134 3.32528 66.7173 3.01847C66.5213 2.71165 66.2592 2.47514 65.9311 2.30895C65.603 2.14276 65.2386 2.05966 64.8381 2.05966C64.4886 2.05966 64.152 2.1321 63.8281 2.27699C63.5043 2.42187 63.2337 2.64986 63.0163 2.96094C62.799 3.27202 62.6733 3.67898 62.6392 4.18182H61.0284C61.0625 3.45739 61.25 2.83736 61.5909 2.32173C61.9361 1.80611 62.3899 1.41193 62.9524 1.1392C63.5192 0.866477 64.1477 0.730113 64.8381 0.730113C65.5881 0.730113 66.2401 0.879261 66.794 1.17756C67.3523 1.47585 67.7827 1.88494 68.0852 2.40483C68.392 2.92472 68.5455 3.51704 68.5455 4.18182C68.5455 4.65057 68.473 5.07457 68.3281 5.45384C68.1875 5.8331 67.983 6.17187 67.7145 6.47017C67.4503 6.76847 67.1307 7.03267 66.7557 7.26278C66.3807 7.49716 66.0803 7.74432 65.8544 8.00426C65.6286 8.25994 65.4645 8.56463 65.3622 8.91832C65.2599 9.27202 65.2045 9.71307 65.196 10.2415V10.3182H63.6619ZM64.4801 14.1023C64.1648 14.1023 63.8942 13.9893 63.6683 13.7635C63.4425 13.5376 63.3295 13.267 63.3295 12.9517C63.3295 12.6364 63.4425 12.3658 63.6683 12.1399C63.8942 11.9141 64.1648 11.8011 64.4801 11.8011C64.7955 11.8011 65.0661 11.9141 65.2919 12.1399C65.5178 12.3658 65.6307 12.6364 65.6307 12.9517C65.6307 13.1605 65.5774 13.3523 65.4709 13.527C65.3686 13.7017 65.2301 13.8423 65.0554 13.9489C64.8849 14.0511 64.6932 14.1023 64.4801 14.1023Z" fill="black"/>
</svg>
