<svg width="124" height="120" viewBox="0 0 124 120" fill="none" xmlns="http://www.w3.org/2000/svg">
<path d="M100.702 29.8213C100.705 29.7146 100.707 29.6075 100.707 29.5C100.707 24.2533 96.3562 20 90.9893 20C86.7319 20 83.114 22.6765 81.8 26.4022C80.8564 25.9208 79.7834 25.6486 78.6453 25.6486C74.8739 25.6486 71.8167 28.6374 71.8167 32.3243C71.8167 36.0112 74.8739 39 78.6453 39L91.0024 39H98.3432C101.099 39 103.333 36.8159 103.333 34.1216C103.333 32.2613 102.268 30.6442 100.702 29.8213Z" fill="white"/>
<path d="M93.7134 87.479C94.9966 86.1991 93.7568 84.1672 91.9187 84.3046C90.8036 84.388 89.6766 84.4304 88.5393 84.4304C64.663 84.4304 45.3074 65.714 45.3074 42.626C45.3074 35.5249 47.1384 28.8373 50.3688 22.9806C51.2377 21.4052 49.8056 19.4917 48.0788 20.124C31.9829 26.018 20.5375 41.082 20.5375 58.7352C20.5375 81.5251 39.613 100 63.1438 100C75.1359 100 85.9708 95.2016 93.7134 87.479Z" fill="#303030" fill-opacity="0.7"/>
<path d="M48.2151 81.2997C48.2198 81.1607 48.2222 81.0211 48.2222 80.881C48.2222 74.0431 42.5164 68.5 35.4778 68.5C29.8943 68.5 25.1495 71.9882 23.4263 76.8437C22.1887 76.2164 20.7814 75.8616 19.2889 75.8616C14.3429 75.8616 10.3333 79.7568 10.3333 84.5618C10.3333 89.3667 14.3429 93.2619 19.2889 93.2619L35.4949 93.2619H45.1222C48.7366 93.2619 51.6667 90.4154 51.6667 86.9041C51.6667 84.4796 50.2697 82.3721 48.2151 81.2997Z" fill="white"/>
</svg>
