<svg width="156" height="34" viewBox="0 0 156 34" fill="none" xmlns="http://www.w3.org/2000/svg">
<path d="M1.92 33H0.255001V1.68H12.855C14.955 1.68 16.89 2.13 18.66 3.03C20.46 3.93 21.885 5.205 22.935 6.855C23.985 8.505 24.51 10.41 24.51 12.57C24.51 14.64 23.97 16.545 22.89 18.285C21.84 20.025 20.4 21.36 18.57 22.29C16.98 23.1 15.075 23.505 12.855 23.505H1.92V33ZM1.92 21.84H12.855C14.775 21.84 16.35 21.54 17.58 20.94C19.17 20.19 20.445 19.065 21.405 17.565C22.365 16.065 22.845 14.4 22.845 12.57C22.845 10.77 22.365 9.12 21.405 7.62C20.445 6.12 19.155 4.995 17.535 4.245C16.305 3.645 14.745 3.345 12.855 3.345H1.92V21.84ZM34.2855 33V1.68H35.9505V31.335H57.7755V33H34.2855ZM76.4161 1.68H78.1711L91.0411 33H89.2411L85.0111 22.65H69.5761L65.3011 33H63.5461L76.4161 1.68ZM70.2511 21.03H84.3361L77.2711 3.84L70.2511 21.03ZM98.3416 33V1.68H100.097L121.967 22.92V1.68H123.632V33H121.967V25.26L100.007 3.84V33H98.3416ZM144.567 18.015C142.017 17.505 139.932 16.95 138.312 16.35C136.722 15.72 135.462 14.88 134.532 13.83C133.632 12.75 133.182 11.37 133.182 9.69C133.182 7.95 133.632 6.42 134.532 5.1C135.462 3.78 136.752 2.76 138.402 2.04C140.082 1.32 142.017 0.959999 144.207 0.959999C146.307 0.959999 148.227 1.41 149.967 2.31C151.737 3.18 153.132 4.41 154.152 6C155.172 7.59 155.682 9.405 155.682 11.445H154.017C154.017 9.675 153.582 8.115 152.712 6.765C151.842 5.415 150.657 4.38 149.157 3.66C147.657 2.91 145.992 2.535 144.162 2.535C142.542 2.535 141.027 2.79 139.617 3.3C138.207 3.81 137.052 4.59 136.152 5.64C135.282 6.69 134.847 8.01 134.847 9.6C134.847 11.04 135.267 12.195 136.107 13.065C136.947 13.905 138.042 14.55 139.392 15C140.742 15.45 142.632 15.93 145.062 16.44C147.522 16.95 149.427 17.445 150.777 17.925C152.157 18.375 153.312 19.14 154.242 20.22C155.202 21.3 155.682 22.815 155.682 24.765C155.682 26.715 155.157 28.365 154.107 29.715C153.087 31.035 151.722 32.025 150.012 32.685C148.302 33.345 146.442 33.675 144.432 33.675C141.942 33.675 139.752 33.21 137.862 32.28C135.972 31.35 134.517 30.045 133.497 28.365C132.507 26.655 132.012 24.705 132.012 22.515H133.677C133.677 24.435 134.097 26.115 134.937 27.555C135.807 28.995 137.052 30.12 138.672 30.93C140.292 31.71 142.212 32.1 144.432 32.1C147.192 32.1 149.472 31.44 151.272 30.12C153.102 28.8 154.017 27 154.017 24.72C154.017 23.16 153.627 21.96 152.847 21.12C152.067 20.28 151.077 19.68 149.877 19.32C148.707 18.93 146.937 18.495 144.567 18.015Z" fill="white"/>
</svg>
