<svg width="200" height="83" viewBox="0 0 200 83" fill="none" xmlns="http://www.w3.org/2000/svg">
<path d="M25.5719 15.68C23.3052 15.2267 21.4519 14.7333 20.0119 14.2C18.5985 13.64 17.4785 12.8933 16.6519 11.96C15.8519 11 15.4519 9.77333 15.4519 8.28C15.4519 6.73333 15.8519 5.37333 16.6519 4.2C17.4785 3.02667 18.6252 2.12 20.0919 1.48C21.5852 0.839999 23.3052 0.52 25.2519 0.52C27.1185 0.52 28.8252 0.919999 30.3719 1.72C31.9452 2.49333 33.1852 3.58666 34.0919 5C34.9985 6.41333 35.4519 8.02666 35.4519 9.84H33.9719C33.9719 8.26666 33.5852 6.88 32.8119 5.68C32.0385 4.48 30.9852 3.56 29.6519 2.92C28.3185 2.25333 26.8385 1.92 25.2119 1.92C23.7719 1.92 22.4252 2.14667 21.1719 2.6C19.9185 3.05333 18.8919 3.74667 18.0919 4.68C17.3185 5.61333 16.9319 6.78667 16.9319 8.2C16.9319 9.48 17.3052 10.5067 18.0519 11.28C18.7985 12.0267 19.7719 12.6 20.9719 13C22.1719 13.4 23.8519 13.8267 26.0119 14.28C28.1985 14.7333 29.8919 15.1733 31.0919 15.6C32.3185 16 33.3452 16.68 34.1719 17.64C35.0252 18.6 35.4519 19.9467 35.4519 21.68C35.4519 23.4133 34.9852 24.88 34.0519 26.08C33.1452 27.2533 31.9319 28.1333 30.4119 28.72C28.8919 29.3067 27.2385 29.6 25.4519 29.6C23.2385 29.6 21.2919 29.1867 19.6119 28.36C17.9319 27.5333 16.6385 26.3733 15.7319 24.88C14.8519 23.36 14.4119 21.6267 14.4119 19.68H15.8919C15.8919 21.3867 16.2652 22.88 17.0119 24.16C17.7852 25.44 18.8919 26.44 20.3319 27.16C21.7719 27.8533 23.4785 28.2 25.4519 28.2C27.9052 28.2 29.9319 27.6133 31.5319 26.44C33.1585 25.2667 33.9719 23.6667 33.9719 21.64C33.9719 20.2533 33.6252 19.1867 32.9319 18.44C32.2385 17.6933 31.3585 17.16 30.2919 16.84C29.2519 16.4933 27.6785 16.1067 25.5719 15.68ZM54.5813 0.559999C56.6613 0.559999 58.5813 1.08 60.3412 2.12C62.1013 3.13333 63.4879 4.52 64.5013 6.28C65.5413 8.04 66.0613 9.96 66.0613 12.04V18.12C66.0613 20.2 65.5413 22.12 64.5013 23.88C63.4879 25.64 62.1013 27.04 60.3412 28.08C58.5813 29.0933 56.6613 29.6 54.5813 29.6C52.5013 29.6 50.5813 29.0933 48.8213 28.08C47.0613 27.04 45.6613 25.64 44.6213 23.88C43.6079 22.12 43.1013 20.2 43.1013 18.12V12.04C43.1013 9.96 43.6079 8.04 44.6213 6.28C45.6613 4.52 47.0613 3.13333 48.8213 2.12C50.5813 1.08 52.5013 0.559999 54.5813 0.559999ZM44.5813 18.12C44.5813 19.9333 45.0213 21.6133 45.9013 23.16C46.8079 24.68 48.0213 25.8933 49.5413 26.8C51.0879 27.68 52.7679 28.12 54.5813 28.12C56.3946 28.12 58.0613 27.68 59.5813 26.8C61.1279 25.8933 62.3413 24.68 63.2213 23.16C64.1279 21.6133 64.5813 19.9333 64.5813 18.12V12.04C64.5813 10.2267 64.1279 8.56 63.2213 7.04C62.3413 5.49333 61.1279 4.28 59.5813 3.4C58.0613 2.49333 56.3946 2.04 54.5813 2.04C52.7679 2.04 51.0879 2.49333 49.5413 3.4C48.0213 4.28 46.8079 5.49333 45.9013 7.04C45.0213 8.56 44.5813 10.2267 44.5813 12.04V18.12ZM74.6306 18.36C74.6306 20.12 75.0706 21.7467 75.9506 23.24C76.8573 24.7333 78.0573 25.92 79.5506 26.8C81.0706 27.68 82.7106 28.12 84.4706 28.12C86.284 28.12 87.924 27.76 89.3906 27.04C90.8573 26.32 92.004 25.32 92.8306 24.04C93.684 22.76 94.124 21.32 94.1506 19.72H95.5906C95.5906 21.56 95.0973 23.24 94.1106 24.76C93.1506 26.2533 91.8173 27.44 90.1106 28.32C88.4306 29.1733 86.5506 29.6 84.4706 29.6C82.444 29.6 80.564 29.0933 78.8306 28.08C77.0973 27.0667 75.724 25.7067 74.7106 24C73.6973 22.2667 73.1906 20.3867 73.1906 18.36V11.8C73.1906 9.77333 73.684 7.90666 74.6706 6.2C75.684 4.46666 77.044 3.09333 78.7506 2.08C80.484 1.06667 82.364 0.559999 84.3906 0.559999C86.444 0.559999 88.3106 0.999999 89.9906 1.88C91.6973 2.73333 93.044 3.92 94.0306 5.44C95.0173 6.93333 95.5106 8.6 95.5106 10.44H94.0706C94.044 8.84 93.604 7.4 92.7506 6.12C91.8973 4.84 90.7373 3.84 89.2706 3.12C87.8306 2.4 86.204 2.04 84.3906 2.04C82.6306 2.04 81.004 2.48 79.5106 3.36C78.0173 4.24 76.8306 5.42666 75.9506 6.92C75.0706 8.41333 74.6306 10.04 74.6306 11.8V18.36ZM122.84 1.16V2.64H114.52V27.52H122.84V29H104.8V27.52H113.08V2.64H104.8V1.16H122.84ZM142.649 1.16H144.209L155.649 29H154.049L150.289 19.8H136.569L132.769 29H131.209L142.649 1.16ZM137.169 18.36H149.689L143.409 3.08L137.169 18.36ZM164.419 29V1.16H165.899V27.52H185.299V29H164.419ZM15.7672 55.96C17.0205 56.6 17.9805 57.48 18.6472 58.6C19.3405 59.72 19.6872 60.9733 19.6872 62.36C19.6872 63.6667 19.3405 64.88 18.6472 66C17.9805 67.0933 17.0472 67.96 15.8472 68.6C17.2605 69.08 18.4339 69.96 19.3672 71.24C20.3005 72.52 20.7672 73.9333 20.7672 75.48C20.7672 76.8667 20.4205 78.1467 19.7272 79.32C19.0339 80.4933 18.1139 81.4 16.9672 82.04C16.3805 82.36 15.7272 82.6 15.0072 82.76C14.2872 82.92 13.3272 83 12.1272 83H0.447188V55.16H11.5672C13.3272 55.16 14.7272 55.4267 15.7672 55.96ZM15.1272 67.44C16.0872 66.96 16.8472 66.2667 17.4072 65.36C17.9672 64.4533 18.2472 63.4533 18.2472 62.36C18.2472 61.1333 17.9272 60.0667 17.2872 59.16C16.6472 58.2267 15.8339 57.5467 14.8472 57.12C14.1005 56.8 12.8472 56.64 11.0872 56.64H1.88719V68.08H11.8072C13.1939 68.08 14.3005 67.8667 15.1272 67.44ZM16.0872 80.92C17.0739 80.4133 17.8605 79.68 18.4472 78.72C19.0339 77.7333 19.3272 76.6667 19.3272 75.52C19.3272 74.32 19.0205 73.24 18.4072 72.28C17.7939 71.2933 16.9672 70.56 15.9272 70.08C15.1272 69.7067 14.0472 69.52 12.6872 69.52H1.88719V81.56H12.1672C13.1805 81.56 13.9805 81.5067 14.5672 81.4C15.1539 81.2933 15.6605 81.1333 16.0872 80.92ZM39.0166 55.16H40.5766L52.0166 83H50.4166L46.6566 73.8H32.9366L29.1366 83H27.5766L39.0166 55.16ZM33.5366 72.36H46.0566L39.7766 57.08L33.5366 72.36ZM80.6259 55.16V56.64H70.1059V83H68.6659V56.64H58.1459V55.16H80.6259ZM110.235 55.16V56.64H99.7153V83H98.2753V56.64H87.7553V55.16H110.235ZM119.005 55.16H138.605V56.64H120.485V67.92H136.245V69.4H120.485V81.52H138.605V83H119.005V55.16ZM164.254 56.08C165.854 56.8267 167.107 57.9333 168.014 59.4C168.947 60.8667 169.414 62.4933 169.414 64.28C169.414 66.36 168.774 68.2267 167.494 69.88C166.241 71.5067 164.627 72.5867 162.654 73.12L169.734 83H167.974L161.134 73.4L159.854 73.44H149.814V83H148.334V55.16H158.934C160.107 55.16 161.107 55.24 161.934 55.4C162.787 55.5333 163.561 55.76 164.254 56.08ZM160.254 71.96C161.641 71.96 162.921 71.6133 164.094 70.92C165.267 70.2267 166.201 69.2933 166.894 68.12C167.587 66.9467 167.934 65.6667 167.934 64.28C167.934 62.7333 167.521 61.3333 166.694 60.08C165.894 58.8267 164.774 57.8933 163.334 57.28C162.294 56.8533 160.827 56.64 158.934 56.64H149.814V71.96H160.254ZM177.983 55.16L187.863 70.04L197.663 55.16H199.423L188.583 71.6V83H187.103V71.6L176.223 55.16H177.983Z" fill="black"/>
</svg>
