<svg width="396" height="30" viewBox="0 0 396 30" fill="none" xmlns="http://www.w3.org/2000/svg">
<path d="M11.5563 15.68C9.28958 15.2267 7.43625 14.7333 5.99625 14.2C4.58292 13.64 3.46292 12.8933 2.63625 11.96C1.83625 11 1.43625 9.77333 1.43625 8.28C1.43625 6.73333 1.83625 5.37333 2.63625 4.2C3.46292 3.02667 4.60958 2.12 6.07625 1.48C7.56958 0.839999 9.28958 0.52 11.2363 0.52C13.1029 0.52 14.8096 0.919999 16.3562 1.72C17.9296 2.49333 19.1696 3.58666 20.0763 5C20.9829 6.41333 21.4363 8.02666 21.4363 9.84H19.9563C19.9563 8.26666 19.5696 6.88 18.7963 5.68C18.0229 4.48 16.9696 3.56 15.6363 2.92C14.3029 2.25333 12.8229 1.92 11.1963 1.92C9.75625 1.92 8.40958 2.14667 7.15625 2.6C5.90292 3.05333 4.87625 3.74667 4.07625 4.68C3.30292 5.61333 2.91625 6.78667 2.91625 8.2C2.91625 9.48 3.28958 10.5067 4.03625 11.28C4.78292 12.0267 5.75625 12.6 6.95625 13C8.15625 13.4 9.83625 13.8267 11.9963 14.28C14.1829 14.7333 15.8763 15.1733 17.0763 15.6C18.3029 16 19.3296 16.68 20.1563 17.64C21.0096 18.6 21.4363 19.9467 21.4363 21.68C21.4363 23.4133 20.9696 24.88 20.0363 26.08C19.1296 27.2533 17.9163 28.1333 16.3963 28.72C14.8763 29.3067 13.2229 29.6 11.4363 29.6C9.22292 29.6 7.27625 29.1867 5.59625 28.36C3.91625 27.5333 2.62292 26.3733 1.71625 24.88C0.83625 23.36 0.39625 21.6267 0.39625 19.68H1.87625C1.87625 21.3867 2.24958 22.88 2.99625 24.16C3.76958 25.44 4.87625 26.44 6.31625 27.16C7.75625 27.8533 9.46292 28.2 11.4363 28.2C13.8896 28.2 15.9163 27.6133 17.5163 26.44C19.1429 25.2667 19.9563 23.6667 19.9563 21.64C19.9563 20.2533 19.6096 19.1867 18.9163 18.44C18.2229 17.6933 17.3429 17.16 16.2763 16.84C15.2363 16.4933 13.6629 16.1067 11.5563 15.68ZM40.5656 0.559999C42.6456 0.559999 44.5656 1.08 46.3256 2.12C48.0856 3.13333 49.4723 4.52 50.4856 6.28C51.5256 8.04 52.0456 9.96 52.0456 12.04V18.12C52.0456 20.2 51.5256 22.12 50.4856 23.88C49.4723 25.64 48.0856 27.04 46.3256 28.08C44.5656 29.0933 42.6456 29.6 40.5656 29.6C38.4856 29.6 36.5656 29.0933 34.8056 28.08C33.0456 27.04 31.6456 25.64 30.6056 23.88C29.5923 22.12 29.0856 20.2 29.0856 18.12V12.04C29.0856 9.96 29.5923 8.04 30.6056 6.28C31.6456 4.52 33.0456 3.13333 34.8056 2.12C36.5656 1.08 38.4856 0.559999 40.5656 0.559999ZM30.5656 18.12C30.5656 19.9333 31.0056 21.6133 31.8856 23.16C32.7923 24.68 34.0056 25.8933 35.5256 26.8C37.0723 27.68 38.7523 28.12 40.5656 28.12C42.379 28.12 44.0456 27.68 45.5656 26.8C47.1123 25.8933 48.3256 24.68 49.2056 23.16C50.1123 21.6133 50.5656 19.9333 50.5656 18.12V12.04C50.5656 10.2267 50.1123 8.56 49.2056 7.04C48.3256 5.49333 47.1123 4.28 45.5656 3.4C44.0456 2.49333 42.379 2.04 40.5656 2.04C38.7523 2.04 37.0723 2.49333 35.5256 3.4C34.0056 4.28 32.7923 5.49333 31.8856 7.04C31.0056 8.56 30.5656 10.2267 30.5656 12.04V18.12ZM60.615 18.36C60.615 20.12 61.055 21.7467 61.935 23.24C62.8417 24.7333 64.0417 25.92 65.535 26.8C67.055 27.68 68.695 28.12 70.455 28.12C72.2683 28.12 73.9083 27.76 75.375 27.04C76.8417 26.32 77.9883 25.32 78.815 24.04C79.6683 22.76 80.1083 21.32 80.135 19.72H81.575C81.575 21.56 81.0817 23.24 80.095 24.76C79.135 26.2533 77.8017 27.44 76.095 28.32C74.415 29.1733 72.535 29.6 70.455 29.6C68.4283 29.6 66.5483 29.0933 64.815 28.08C63.0817 27.0667 61.7083 25.7067 60.695 24C59.6817 22.2667 59.175 20.3867 59.175 18.36V11.8C59.175 9.77333 59.6683 7.90666 60.655 6.2C61.6683 4.46666 63.0283 3.09333 64.735 2.08C66.4683 1.06667 68.3483 0.559999 70.375 0.559999C72.4283 0.559999 74.295 0.999999 75.975 1.88C77.6817 2.73333 79.0283 3.92 80.015 5.44C81.0017 6.93333 81.495 8.6 81.495 10.44H80.055C80.0283 8.84 79.5883 7.4 78.735 6.12C77.8817 4.84 76.7217 3.84 75.255 3.12C73.815 2.4 72.1883 2.04 70.375 2.04C68.615 2.04 66.9883 2.48 65.495 3.36C64.0017 4.24 62.815 5.42666 61.935 6.92C61.055 8.41333 60.615 10.04 60.615 11.8V18.36ZM108.824 1.16V2.64H100.504V27.52H108.824V29H90.7844V27.52H99.0644V2.64H90.7844V1.16H108.824ZM128.634 1.16H130.194L141.634 29H140.034L136.274 19.8H122.554L118.754 29H117.194L128.634 1.16ZM123.154 18.36H135.674L129.394 3.08L123.154 18.36ZM150.403 29V1.16H151.883V27.52H171.283V29H150.403ZM211.978 1.96C213.231 2.6 214.191 3.48 214.858 4.6C215.551 5.72 215.898 6.97333 215.898 8.36C215.898 9.66667 215.551 10.88 214.858 12C214.191 13.0933 213.258 13.96 212.058 14.6C213.471 15.08 214.645 15.96 215.578 17.24C216.511 18.52 216.978 19.9333 216.978 21.48C216.978 22.8667 216.631 24.1467 215.938 25.32C215.245 26.4933 214.325 27.4 213.178 28.04C212.591 28.36 211.938 28.6 211.218 28.76C210.498 28.92 209.538 29 208.338 29H196.658V1.16H207.778C209.538 1.16 210.938 1.42666 211.978 1.96ZM211.338 13.44C212.298 12.96 213.058 12.2667 213.618 11.36C214.178 10.4533 214.458 9.45333 214.458 8.36C214.458 7.13333 214.138 6.06667 213.498 5.16C212.858 4.22667 212.045 3.54667 211.058 3.12C210.311 2.8 209.058 2.64 207.298 2.64H198.098V14.08H208.018C209.405 14.08 210.511 13.8667 211.338 13.44ZM212.298 26.92C213.285 26.4133 214.071 25.68 214.658 24.72C215.245 23.7333 215.538 22.6667 215.538 21.52C215.538 20.32 215.231 19.24 214.618 18.28C214.005 17.2933 213.178 16.56 212.138 16.08C211.338 15.7067 210.258 15.52 208.898 15.52H198.098V27.56H208.378C209.391 27.56 210.191 27.5067 210.778 27.4C211.365 27.2933 211.871 27.1333 212.298 26.92ZM235.228 1.16H236.788L248.228 29H246.628L242.868 19.8H229.148L225.348 29H223.788L235.228 1.16ZM229.748 18.36H242.268L235.988 3.08L229.748 18.36ZM276.837 1.16V2.64H266.317V29H264.877V2.64H254.357V1.16H276.837ZM306.446 1.16V2.64H295.926V29H294.486V2.64H283.966V1.16H306.446ZM315.216 1.16H334.816V2.64H316.696V13.92H332.456V15.4H316.696V27.52H334.816V29H315.216V1.16ZM360.465 2.08C362.065 2.82667 363.318 3.93333 364.225 5.4C365.158 6.86667 365.625 8.49333 365.625 10.28C365.625 12.36 364.985 14.2267 363.705 15.88C362.452 17.5067 360.838 18.5867 358.865 19.12L365.945 29H364.185L357.345 19.4L356.065 19.44H346.025V29H344.545V1.16H355.145C356.318 1.16 357.318 1.24 358.145 1.4C358.998 1.53333 359.772 1.76 360.465 2.08ZM356.465 17.96C357.852 17.96 359.132 17.6133 360.305 16.92C361.478 16.2267 362.412 15.2933 363.105 14.12C363.798 12.9467 364.145 11.6667 364.145 10.28C364.145 8.73333 363.732 7.33333 362.905 6.08C362.105 4.82667 360.985 3.89333 359.545 3.28C358.505 2.85333 357.038 2.64 355.145 2.64H346.025V17.96H356.465ZM374.194 1.16L384.074 16.04L393.874 1.16H395.634L384.794 17.6V29H383.314V17.6L372.434 1.16H374.194Z" fill="black"/>
</svg>
