<svg width="415" height="755" viewBox="0 0 415 755" fill="none" xmlns="http://www.w3.org/2000/svg">
<path d="M378.5 0C422.13 0 457.5 35.3695 457.5 79C457.5 109.664 440.03 136.246 414.5 149.339V755H0.5V152.375C-16.4148 146.241 -28.5 130.033 -28.5 111C-28.5 86.6995 -8.80053 67 15.5 67C31.8808 67 46.1696 75.9523 53.7441 89.2305C60.6174 85.88 68.3391 84 76.5 84C81.3009 84 85.9497 84.6513 90.3633 85.8691C103.794 67.1757 125.725 55 150.5 55C164.081 55 176.808 58.6594 187.748 65.0449C194.327 51.9706 207.865 43 223.5 43C235.065 43 245.482 47.9105 252.785 55.7578C262.733 40.8329 279.718 31 299 31C304.267 31 309.363 31.7336 314.191 33.1045C328.52 13.063 351.985 0 378.5 0ZM249.95 113H250.226C250.196 112.946 250.165 112.892 250.136 112.838C250.074 112.893 250.012 112.946 249.95 113Z" fill="url(#paint0_linear_12_3)"/>
<defs>
<linearGradient id="paint0_linear_12_3" x1="207.5" y1="32" x2="207.5" y2="545.5" gradientUnits="userSpaceOnUse">
<stop stop-color="#FAF8F5"/>
<stop offset="1" stop-color="white" stop-opacity="0"/>
</linearGradient>
</defs>
</svg>
