<svg width="108" height="15" viewBox="0 0 108 15" fill="none" xmlns="http://www.w3.org/2000/svg">
<path d="M3.96307 14L0.383523 0.909091H1.99432L4.73011 11.571H4.85795L7.64489 0.909091H9.43466L12.2216 11.571H12.3494L15.0852 0.909091H16.696L13.1165 14H11.4801L8.59091 3.56818H8.48864L5.59943 14H3.96307ZM19.9751 8.09375V14H18.4666V0.909091H19.9751V5.71591H20.103C20.3331 5.20881 20.6783 4.80611 21.1385 4.50781C21.603 4.20526 22.2209 4.05398 22.9922 4.05398C23.6612 4.05398 24.2472 4.18821 24.75 4.45668C25.2528 4.72088 25.6428 5.12784 25.9197 5.67756C26.201 6.22301 26.3416 6.91761 26.3416 7.76136V14H24.8331V7.86364C24.8331 7.08381 24.6307 6.48082 24.2259 6.05469C23.8253 5.62429 23.2692 5.40909 22.5575 5.40909C22.0632 5.40909 21.62 5.51349 21.228 5.7223C20.8402 5.93111 20.5334 6.2358 20.3075 6.63636C20.0859 7.03693 19.9751 7.52273 19.9751 8.09375ZM31.9906 14.2301C31.3684 14.2301 30.8038 14.1129 30.2967 13.8786C29.7896 13.6399 29.3869 13.2969 29.0886 12.8494C28.7903 12.3977 28.6412 11.8523 28.6412 11.2131C28.6412 10.6506 28.752 10.1946 28.9735 9.84517C29.1951 9.49148 29.4913 9.21449 29.862 9.0142C30.2328 8.81392 30.6419 8.66477 31.0893 8.56676C31.541 8.46449 31.9949 8.38352 32.4508 8.32386C33.0474 8.24716 33.5311 8.18963 33.9018 8.15128C34.2768 8.10866 34.5495 8.03835 34.72 7.94034C34.8947 7.84233 34.9821 7.67187 34.9821 7.42898V7.37784C34.9821 6.74716 34.8095 6.2571 34.4643 5.90767C34.1234 5.55824 33.6056 5.38352 32.911 5.38352C32.1909 5.38352 31.6262 5.54119 31.2172 5.85653C30.8081 6.17187 30.5204 6.50852 30.3542 6.86648L28.9224 6.35511C29.1781 5.75852 29.519 5.29403 29.9451 4.96165C30.3755 4.625 30.8443 4.39062 31.3514 4.25852C31.8627 4.12216 32.3656 4.05398 32.8599 4.05398C33.1752 4.05398 33.5375 4.09233 33.9466 4.16903C34.3599 4.24148 34.7583 4.39276 35.1419 4.62287C35.5297 4.85298 35.8514 5.20028 36.1071 5.66477C36.3627 6.12926 36.4906 6.75142 36.4906 7.53125V14H34.9821V12.6705H34.9054C34.8031 12.8835 34.6326 13.1115 34.394 13.3544C34.1554 13.5973 33.8379 13.804 33.4416 13.9744C33.0453 14.1449 32.5616 14.2301 31.9906 14.2301ZM32.2207 12.875C32.8173 12.875 33.3201 12.7578 33.7292 12.5234C34.1426 12.2891 34.4537 11.9865 34.6625 11.6158C34.8755 11.245 34.9821 10.8551 34.9821 10.446V9.06534C34.9181 9.14205 34.7775 9.21236 34.5602 9.27628C34.3471 9.33594 34.1 9.3892 33.8187 9.43608C33.5417 9.47869 33.2711 9.51705 33.0069 9.55114C32.747 9.58097 32.536 9.60653 32.3741 9.62784C31.9821 9.67898 31.6156 9.76207 31.2747 9.87713C30.938 9.98793 30.6653 10.1562 30.4565 10.3821C30.252 10.6037 30.1497 10.9062 30.1497 11.2898C30.1497 11.8139 30.3436 12.2102 30.7314 12.4787C31.1234 12.7429 31.6199 12.875 32.2207 12.875ZM43.5138 4.18182V5.46023H38.4258V4.18182H43.5138ZM39.9087 1.82955H41.4173V11.1875C41.4173 11.6136 41.479 11.9332 41.6026 12.1463C41.7305 12.3551 41.8924 12.4957 42.0884 12.5682C42.2887 12.6364 42.4996 12.6705 42.7212 12.6705C42.8874 12.6705 43.0238 12.6619 43.1303 12.6449C43.2369 12.6236 43.3221 12.6065 43.386 12.5938L43.6928 13.9489C43.5906 13.9872 43.4478 14.0256 43.2646 14.0639C43.0813 14.1065 42.8491 14.1278 42.5678 14.1278C42.1417 14.1278 41.7241 14.0362 41.315 13.853C40.9102 13.6697 40.5735 13.3906 40.305 13.0156C40.0408 12.6406 39.9087 12.1676 39.9087 11.5966V1.82955ZM52.2518 10.4205L52.2262 8.55398H52.533L56.8285 4.18182H58.695L54.1183 8.80966H53.9904L52.2518 10.4205ZM50.8455 14V0.909091H52.354V14H50.8455ZM57.0842 14L53.2489 9.14205L54.3228 8.09375L59.0018 14H57.0842ZM60.6365 14V4.18182H62.1451V14H60.6365ZM61.4036 2.54545C61.1096 2.54545 60.856 2.44531 60.6429 2.24503C60.4341 2.04474 60.3297 1.80398 60.3297 1.52273C60.3297 1.24148 60.4341 1.00071 60.6429 0.800426C60.856 0.600142 61.1096 0.5 61.4036 0.5C61.6976 0.5 61.949 0.600142 62.1578 0.800426C62.3709 1.00071 62.4775 1.24148 62.4775 1.52273C62.4775 1.80398 62.3709 2.04474 62.1578 2.24503C61.949 2.44531 61.6976 2.54545 61.4036 2.54545ZM66.4165 8.09375V14H64.908V4.18182H66.3654V5.71591H66.4933C66.7234 5.21733 67.0728 4.81676 67.5415 4.5142C68.0103 4.20739 68.6154 4.05398 69.3569 4.05398C70.0217 4.05398 70.6033 4.19034 71.1019 4.46307C71.6005 4.73153 71.9883 5.14062 72.2653 5.69034C72.5423 6.2358 72.6808 6.92614 72.6808 7.76136V14H71.1722V7.86364C71.1722 7.09233 70.9719 6.49148 70.5714 6.06108C70.1708 5.62642 69.6211 5.40909 68.9222 5.40909C68.4407 5.40909 68.0103 5.51349 67.631 5.7223C67.256 5.93111 66.9599 6.2358 66.7425 6.63636C66.5252 7.03693 66.4165 7.52273 66.4165 8.09375ZM79.1447 14.2045C78.3265 14.2045 77.6042 13.9979 76.9778 13.5845C76.3514 13.1669 75.8613 12.5788 75.5076 11.8203C75.1539 11.0575 74.9771 10.1562 74.9771 9.11648C74.9771 8.08523 75.1539 7.19034 75.5076 6.43182C75.8613 5.6733 76.3535 5.08736 76.9842 4.67401C77.6149 4.26065 78.3436 4.05398 79.1703 4.05398C79.8095 4.05398 80.3145 4.16051 80.6852 4.37358C81.0602 4.58239 81.3457 4.82102 81.5417 5.08949C81.742 5.35369 81.8976 5.57102 82.0083 5.74148H82.1362V0.909091H83.6447V14H82.1873V12.4915H82.0083C81.8976 12.6705 81.7399 12.8963 81.5353 13.169C81.3308 13.4375 81.0389 13.6783 80.6596 13.8913C80.2804 14.1001 79.7754 14.2045 79.1447 14.2045ZM79.3493 12.8494C79.9544 12.8494 80.4657 12.6918 80.8833 12.3764C81.301 12.0568 81.6184 11.6158 81.8358 11.0533C82.0531 10.4865 82.1618 9.83239 82.1618 9.09091C82.1618 8.35795 82.0552 7.71662 81.8422 7.1669C81.6291 6.61293 81.3137 6.18253 80.8961 5.87571C80.4785 5.56463 79.9629 5.40909 79.3493 5.40909C78.71 5.40909 78.1774 5.57315 77.7512 5.90128C77.3294 6.22514 77.0119 6.66619 76.7988 7.22443C76.59 7.77841 76.4856 8.40057 76.4856 9.09091C76.4856 9.78977 76.5922 10.4247 76.8052 10.9957C77.0225 11.5625 77.3422 12.0142 77.764 12.3509C78.1902 12.6832 78.7186 12.8494 79.3493 12.8494ZM95.6681 14.2045C94.7818 14.2045 94.0041 13.9936 93.335 13.5717C92.6703 13.1499 92.1504 12.5597 91.7754 11.8011C91.4047 11.0426 91.2193 10.1562 91.2193 9.14205C91.2193 8.11932 91.4047 7.22656 91.7754 6.46378C92.1504 5.70099 92.6703 5.10866 93.335 4.68679C94.0041 4.26491 94.7818 4.05398 95.6681 4.05398C96.5545 4.05398 97.3301 4.26491 97.9949 4.68679C98.6639 5.10866 99.1838 5.70099 99.5545 6.46378C99.9295 7.22656 100.117 8.11932 100.117 9.14205C100.117 10.1562 99.9295 11.0426 99.5545 11.8011C99.1838 12.5597 98.6639 13.1499 97.9949 13.5717C97.3301 13.9936 96.5545 14.2045 95.6681 14.2045ZM95.6681 12.8494C96.3414 12.8494 96.8954 12.6768 97.3301 12.3317C97.7647 11.9865 98.0865 11.5327 98.2953 10.9702C98.5041 10.4077 98.6085 9.7983 98.6085 9.14205C98.6085 8.4858 98.5041 7.87429 98.2953 7.30753C98.0865 6.74077 97.7647 6.28267 97.3301 5.93324C96.8954 5.58381 96.3414 5.40909 95.6681 5.40909C94.9949 5.40909 94.4409 5.58381 94.0062 5.93324C93.5716 6.28267 93.2498 6.74077 93.041 7.30753C92.8322 7.87429 92.7278 8.4858 92.7278 9.14205C92.7278 9.7983 92.8322 10.4077 93.041 10.9702C93.2498 11.5327 93.5716 11.9865 94.0062 12.3317C94.4409 12.6768 94.9949 12.8494 95.6681 12.8494ZM106.792 4.18182V5.46023H101.499V4.18182H106.792ZM103.085 14V2.8267C103.085 2.2642 103.217 1.79545 103.481 1.42045C103.745 1.04545 104.088 0.764204 104.51 0.576704C104.932 0.389204 105.377 0.295454 105.846 0.295454C106.217 0.295454 106.519 0.325283 106.754 0.384943C106.988 0.444602 107.163 0.499999 107.278 0.551136L106.843 1.85511C106.766 1.82954 106.66 1.79758 106.523 1.75923C106.391 1.72088 106.217 1.7017 105.999 1.7017C105.501 1.7017 105.141 1.82741 104.919 2.07884C104.702 2.33026 104.593 2.69886 104.593 3.18466V14H103.085Z" fill="white"/>
</svg>
